<?xml version="1.0" encoding="UTF-8" standalone="no"?>
<!DOCTYPE svg PUBLIC "-//W3C//DTD SVG 1.1//EN" "http://www.w3.org/Graphics/SVG/1.1/DTD/svg11.dtd">
<svg width="100%" height="100%" viewBox="0 0 2133 2133" version="1.1" xmlns="http://www.w3.org/2000/svg" xmlns:xlink="http://www.w3.org/1999/xlink" xml:space="preserve" xmlns:serif="http://www.serif.com/" style="fill-rule:evenodd;clip-rule:evenodd;stroke-linejoin:round;stroke-miterlimit:2;">
    <path d="M842.21014,2133.69067C843.81927,2124.58618 845.09143,2115.40723 847.0921,2106.38965C860.27448,2046.97473 873.97498,1987.67236 886.76593,1928.17419C894.39685,1892.67847 898.59613,1856.66614 900.52222,1820.34766C903.70227,1760.38709 902.59338,1700.42151 901.29712,1640.46973C900.60651,1608.52734 898.22162,1576.61804 896.35388,1544.70825C896.03394,1539.24121 897.71527,1535.42969 901.57227,1531.60498C933.52075,1499.92468 965.29492,1468.0686 997.07599,1436.21985C999.94806,1433.34167 1002.99219,1431.78479 1007.13702,1430.70801C1012.30835,1429.36438 1017.83685,1426.38843 1021.37555,1422.46265C1026.8739,1416.36291 1030.76062,1408.82422 1035.45056,1401.97766C1038.79639,1397.09314 1041.78076,1391.79358 1045.88611,1387.62415C1069.50293,1363.63818 1093.39893,1339.92676 1117.22412,1316.14624C1119.49792,1313.87683 1121.93628,1311.77222 1125.45825,1308.51977C1125.45825,1312.26624 1125.79968,1314.38562 1125.40723,1316.35925C1119.31458,1347.00098 1112.5448,1377.52197 1107.17078,1408.28748C1103.73816,1427.93994 1102.01209,1447.9541 1105.82922,1467.89941C1106.57398,1471.79065 1107.66602,1475.69861 1109.21228,1479.33777C1113.81873,1490.17908 1120.99878,1494.92749 1132.59204,1494.15674C1138.14978,1493.78699 1143.81213,1492.52527 1149.08057,1490.67883C1178.59607,1480.33398 1204.96716,1464.27197 1229.63477,1445.30017C1238.86426,1438.20154 1247.73987,1430.6427 1257.83508,1422.43298C1254.96277,1418.78833 1252.17956,1415.26501 1249.40503,1411.73486C1220.45715,1374.90466 1199.29456,1334.14136 1187.39294,1288.72595C1186.13086,1283.90979 1185.51233,1278.92627 1184.28149,1274.10034C1182.73962,1268.05505 1180.87353,1262.09241 1179.31592,1256.67932C1426.6499,1009.34515 1674.25427,761.7406 1922.49341,513.50128C1926.10132,524.17322 1930.53821,535.49927 1933.76868,547.15949C1949.09131,602.46393 1950.99536,658.03088 1936.37183,713.86853C1934.01709,722.85889 1932.66211,732.10925 1930.78381,741.22687C1929.85352,745.74255 1930.55493,749.70972 1933.67188,753.33069C1936.05286,756.09686 1937.86658,759.34399 1940.1637,762.19061C1971.89087,801.50708 1989.62878,846.86237 1998.43591,896.17285C2009.38208,957.45868 2003.06543,1016.97943 1979.1759,1074.3075C1952.07251,1139.34753 1906.39905,1188.29224 1845.77563,1223.52783C1833.13635,1230.8739 1819.9646,1237.32788 1806.86231,1243.83887C1802.5625,1245.97546 1800.4939,1248.62305 1799.69995,1253.47937C1794.42261,1285.75696 1786.89648,1317.43945 1772.17554,1346.92786C1726.48889,1438.44629 1653.19653,1495.44934 1554.21436,1519.27686C1522.20764,1526.98157 1489.28674,1525.13208 1456.67566,1522.84558C1410.29394,1519.59338 1367.73987,1504.23279 1327.86194,1480.82605C1323.0061,1477.97595 1317.99231,1475.3949 1312.46716,1472.36902C1302.12537,1483.20606 1291.6814,1493.90552 1281.50879,1504.85718C1254.30176,1534.14758 1227.34228,1563.66894 1200.01746,1592.84827C1187.13086,1606.60925 1179.34021,1621.93726 1176.7417,1641.13757C1170.40356,1687.96973 1163.58508,1734.73486 1160.35364,1781.89941C1157.44665,1824.32861 1162.19592,1866.32593 1169.05176,1908.15857C1180.6792,1979.10632 1197.97595,2048.86645 1212.89246,2119.12524C1213.65234,2122.70435 1214.74341,2126.26172 1214.97937,2129.875C1215.05396,2131.0166 1212.84204,2132.30762 1209.93066,2133.51269C1202.16675,2133.72437 1196.14893,2133.95435 1189.198,2134.03076C1176.94531,2134.01172 1165.62573,2134.146 1153.35132,2134.17676C1144.30505,2134.04883 1136.20886,2133.85791 1128.125,2134.09326C1125.40051,2134.17236 1122.7074,2135.3335 1120,2136C1058.62488,2136 997.24976,2136 934.34302,2135.41309C921.10913,2134.64185 909.40686,2134.45728 896.7876,2134.23047C883.85284,2134.21436 871.83502,2134.24072 858.94348,2134.16699C852.7832,2133.94165 847.49664,2133.81616 842.21014,2133.69067Z" style="fill:rgb(1,1,1);fill-rule:nonzero;"/>
    <path d="M217.16574,655.19006C232.82793,637.70239 250.16878,623.09802 268.36569,609.58917C275.51428,604.28229 277.93463,598.23114 278.33774,589.61615C279.89374,556.35913 282.60239,523.20081 291.77945,490.94794C321.37482,386.93457 408.03613,291.78629 535.78949,269.57758C562.19531,264.98718 588.77887,264.41199 615.44379,264.52542C620.4043,264.54651 625.36493,264.52844 630.94965,264.52844C632.94855,256.39792 634.70886,248.71182 636.7301,241.09497C666.9176,127.3331 739.00281,53.29987 849.97675,16.01491C885.04028,4.23426 921.16455,2.94002 957.5918,4.31512C1029.77429,7.03996 1091.82581,34.64649 1145.88,81.55164C1165.59644,98.66045 1182.71399,118.15471 1197.74951,139.49965C1201.19287,144.38796 1204.80237,149.21629 1208.82556,153.62495C1214.14453,159.45346 1215.21863,159.26988 1222.71667,156.45108C1247.5907,147.10002 1272.14758,136.68501 1297.50818,128.89967C1337.34302,116.67093 1378.22681,116.46552 1419.18823,122.94673C1449.20142,127.69563 1478.54028,134.92036 1506.06189,148.2242C1547.13855,168.08061 1581.94421,196.04266 1611.10132,229.2576C1218.13062,622.22839 825.43262,1014.92645 431.29059,1409.0686C419.63803,1402.37134 405.3562,1395.23816 392.20035,1386.42432C316.28708,1335.56482 270.18393,1265.22437 255.81339,1174.69812C252.68687,1155.00305 250.53789,1135.13648 248.54709,1115.28784C247.99861,1109.81921 245.71539,1106.15698 242.28911,1102.31433C227.22441,1085.41894 211.3428,1069.11035 197.70781,1051.11145C169.62833,1014.04504 150.14229,972.64569 141.04173,926.80902C136.48318,903.849 135.41678,880.45764 136.72688,857.1723C137.86473,836.94891 139.26356,816.48151 143.45421,796.73901C154.30977,745.59759 178.62518,700.82922 212.19058,660.9588C213.67326,659.19763 215.18961,657.46478 217.16574,655.19006Z" style="fill-rule:nonzero;"/>
    <path d="M1490.27637,548.27612C1595.89868,442.6785 1701.00354,337.56338 1806.17554,232.5154C1814.89429,223.80684 1823.55872,214.92381 1833.11865,207.19861C1870.60132,176.90958 1926.32031,194.69952 1939.01697,240.83368C1945.10352,262.94968 1940.44348,283.0538 1926.25122,300.90201C1922.53235,305.57895 1918.18994,309.78244 1913.95154,314.02094C1678.27832,549.69281 1442.5907,785.35028 1206.89368,1020.99823C946.4483,1281.38928 685.97888,1541.75623 425.59073,1802.20447C415.00552,1812.79199 403.4884,1821.17224 388.54431,1824.46582C361.34799,1830.4596 333.29703,1819.18567 318.20422,1795.7937C303.15503,1772.46924 304.07892,1741.9447 320.85996,1719.90027C325.87912,1713.30664 331.37698,1706.99512 337.23645,1701.13525C721.37836,1316.97742 1105.57996,932.8794 1490.27637,548.27612Z" style="fill:rgb(1,1,1);fill-rule:nonzero;"/>
</svg>
